<svg width="2000" height="1473" viewBox="0 0 2000 1473" fill="none"
	xmlns="http://www.w3.org/2000/svg">
	<g clip-path="url(#clip0_3006_49823)">
		<path
			d="M98.039 720.174L94.2808 720.99L84.3135 723.167L82.1893 723.621L80.7187 722.623L74.5096 718.179L72.0586 716.455L75.8168 715.639L85.6207 713.371L87.7449 712.918L89.2155 713.916L95.4246 718.36L98.039 720.174Z"
			fill="#03F2EB" />
		<path
			d="M761.437 386.391L757.679 387.207L747.712 389.384L745.588 389.838L744.117 388.84L737.908 384.395L735.457 382.672L739.215 381.856L749.019 379.588L751.143 379.135L752.614 380.132L758.823 384.577L761.437 386.391Z"
			fill="#03F2EB" />
		<path
			d="M1387.25 1227.2L1383.5 1228.01L1373.53 1230.19L1371.4 1230.64L1369.93 1229.65L1363.72 1225.2L1361.27 1223.48L1365.03 1222.66L1374.84 1220.39L1376.96 1219.94L1378.43 1220.94L1384.64 1225.38L1387.25 1227.2Z"
			fill="#03F2EB" />
		<path
			d="M117.811 1133.86L114.87 1134.5L107.353 1136.13L105.883 1136.5L104.739 1135.77L100.001 1132.32L98.2031 1130.96L100.981 1130.33L108.497 1128.69L110.131 1128.33L111.112 1129.06L115.85 1132.5L117.811 1133.86Z"
			fill="#5A5A63" />
		<path d="M1740.03 858.131H1733.82L1732.03 861.578H1738.24L1740.03 858.131Z" fill="#03F2EB" />
		<path d="M92.3191 463.305L86.1099 458.951L76.6328 460.947L82.842 465.391L92.3191 463.305Z"
			fill="#FFDB63" />
		<path d="M976.307 5.25994L970.098 0.90625L960.621 2.90169L966.83 7.34609L976.307 5.25994Z"
			fill="#FFDB63" />
		<path d="M1999.18 1470.1L1992.97 1465.74L1983.5 1467.74L1989.71 1472.18L1999.18 1470.1Z"
			fill="#FFDB63" />
		<path d="M1294.94 588.475L1288.73 584.121L1279.25 586.117L1285.46 590.561L1294.94 588.475Z"
			fill="#FFDB63" />
		<path d="M387.418 121.631L382.843 117.912L375.98 119.635L380.392 123.354L387.418 121.631Z"
			fill="#5A5A63" />
		<path
			d="M106.699 270.383C109.967 269.839 112.092 271.472 113.072 272.56H113.235C113.235 272.651 114.379 274.465 116.667 274.193C118.954 273.83 118.301 271.925 118.301 271.835L120.915 271.563C121.242 272.742 120.915 275.1 117.32 275.644C116.83 275.735 116.503 275.735 116.013 275.735C113.399 275.735 111.765 274.465 110.948 273.467H110.784C110.784 273.377 109.641 271.563 107.353 271.835C105.065 272.198 105.719 274.102 105.719 274.193L103.105 274.465C102.778 273.286 102.941 270.928 106.699 270.383Z"
			fill="#03F2EB" />
		<path
			d="M1559.31 423.669C1562.58 423.124 1564.7 424.757 1565.69 425.845H1565.85C1565.85 425.936 1566.99 427.75 1569.28 427.478C1571.57 427.115 1570.91 425.211 1570.91 425.12L1573.53 424.848C1573.86 426.027 1573.53 428.385 1569.93 428.929C1569.44 429.02 1569.12 429.02 1568.63 429.02C1566.01 429.02 1564.38 427.75 1563.56 426.753H1563.4C1563.4 426.662 1562.25 424.848 1559.97 425.12C1557.68 425.483 1558.33 427.387 1558.33 427.478L1555.72 427.75C1555.39 426.571 1555.55 424.213 1559.31 423.669Z"
			fill="#03F2EB" />
		<path
			d="M779.903 781.942C783.17 781.398 785.295 783.031 786.275 784.119H786.438C786.438 784.21 787.582 786.024 789.87 785.752C792.157 785.389 791.504 783.484 791.504 783.393L794.118 783.121C794.445 784.3 794.118 786.659 790.523 787.203C790.033 787.294 789.706 787.294 789.216 787.294C786.602 787.294 784.968 786.024 784.151 785.026H783.987C783.987 784.935 782.844 783.121 780.556 783.393C778.269 783.756 778.922 785.661 778.922 785.752L776.308 786.024C775.981 784.845 776.144 782.486 779.903 781.942Z"
			fill="#03F2EB" />
		<path
			d="M1831.21 110.566C1831.21 111.02 1827.62 112.38 1820.59 112.38C1813.56 112.38 1809.97 111.02 1809.97 110.566C1809.97 110.112 1813.56 108.752 1820.59 108.752C1827.62 108.752 1831.21 110.112 1831.21 110.566Z"
			fill="#FA8080" />
		<path
			d="M448.528 1032.37C447.711 1032.28 446.241 1029.92 448.038 1026.2C449.835 1022.48 453.103 1020.85 453.92 1020.94C454.737 1021.03 456.208 1023.39 454.247 1027.11C452.613 1030.92 449.345 1032.46 448.528 1032.37Z"
			fill="#FA8080" />
		<path
			d="M487.417 593.372C487.744 592.919 492.156 592.556 498.365 594.188C504.737 595.821 507.025 597.907 506.535 598.361C506.045 598.814 501.796 599.177 495.587 597.544C489.378 595.821 487.09 593.735 487.417 593.372Z"
			fill="#FA8080" />
		<path
			d="M1514.22 221.675C1514.22 222.038 1511.77 223.036 1506.86 223.036C1501.96 223.036 1499.51 222.038 1499.51 221.675C1499.51 221.312 1501.96 220.314 1506.86 220.314C1511.77 220.314 1514.22 221.312 1514.22 221.675Z"
			fill="#FA8080" />
		<path
			d="M1885.78 587.657L1887.26 588.927L1880.56 591.104L1884.31 594.823L1882.03 595.548L1878.27 591.829L1871.57 594.006L1870.26 592.646L1876.8 590.56L1873.04 586.841L1875.33 586.115L1879.25 589.834L1885.78 587.657Z"
			fill="#FA8080" />
		<path
			d="M1215.85 868.835L1217.32 870.105L1210.62 872.282L1214.38 876L1212.09 876.726L1208.33 873.007L1201.64 875.184L1200.33 873.824L1206.86 871.737L1203.11 868.019L1205.39 867.293L1209.32 871.012L1215.85 868.835Z"
			fill="#FA8080" />
		<path
			d="M1052.45 1413.05L1053.92 1414.32L1047.22 1416.49L1050.98 1420.21L1048.69 1420.94L1044.94 1417.22L1038.24 1419.4L1036.93 1418.03L1043.47 1415.95L1039.71 1412.23L1042 1411.5L1045.92 1415.22L1052.45 1413.05Z"
			fill="#FA8080" />
		<path
			d="M1771.41 1077.45L1772.88 1078.72L1766.18 1080.89L1769.94 1084.61L1767.65 1085.34L1763.89 1081.62L1757.19 1083.8L1755.88 1082.44L1762.42 1080.35L1758.66 1076.63L1760.95 1075.91L1764.87 1079.63L1771.41 1077.45Z"
			fill="#FFDB63" />
		<path
			d="M830.23 1195.36L831.7 1196.63L825.001 1198.81L828.759 1202.53L826.472 1203.25L822.714 1199.53L816.014 1201.71L814.707 1200.35L821.243 1198.26L817.485 1194.55L819.772 1193.82L823.694 1197.54L830.23 1195.36Z"
			fill="#FFDB63" />
		<path
			d="M16.1753 113.922L19.4433 114.647L15.8485 119.999L25.3256 121.994L24.1818 123.899L14.5413 121.813L10.7831 127.164L7.51517 126.439L11.1099 121.087L1.63281 119.092L2.94 117.187L12.4171 119.273L16.1753 113.922Z"
			fill="#FA8080" />
		<path
			d="M1924.18 335.325C1931.54 337.774 1917.32 351.017 1909.81 348.568C1906.05 347.298 1907.68 343.398 1911.28 340.042C1915.03 336.686 1920.43 334.056 1924.18 335.325Z"
			fill="#FFDB63" />
		<path
			d="M228.597 910.921C222.224 914.095 203.597 902.667 209.969 899.492C213.237 897.86 219.61 899.946 224.185 902.758C228.76 905.569 231.701 909.288 228.597 910.921Z"
			fill="#FFDB63" />
		<path
			d="M1441.34 1364.07L1442.81 1365.34L1436.11 1367.51L1439.87 1371.23L1437.58 1371.96L1433.82 1368.24L1427.12 1370.42L1425.82 1369.06L1432.35 1366.97L1428.59 1363.25L1430.88 1362.53L1434.8 1366.24L1441.34 1364.07Z"
			fill="#1F1E37" />
		<path
			d="M223.041 1366.79L222.224 1368.15L220.426 1371.69L220.099 1372.41H218.629H212.42H209.969L210.622 1371.05L212.42 1367.51L212.91 1366.79H214.217H220.426H223.041Z"
			fill="#03F2EB" />
	</g>
	<defs>
		<clipPath id="clip0_3006_49823">
			<rect width="2000" height="1473" fill="white" />
		</clipPath>
	</defs>
</svg>
	